<svg xmlns="http://www.w3.org/2000/svg" viewBox="0 0 500 500"><g id="freepik--Dog--inject-48"><path d="M162.41,449.29l13.3-44.36s-35.47-12.41-44.34-30.37-1.55-110.4,7.32-137.23,45.23-61.19,94.22-73.16,99.54,11.5,118.38,35.22,51.1,102.27,53.1,124.66S370.47,373,370.47,373l23.17,76.3Z" style="fill:#E1C2A0"></path><g style="opacity:0.1"><path d="M175.71,404.93c5.44.63,10.67,2.12,16,3.28,3.17.64,6.4,1,9.62,1.71-8.81,1.52-17.74-1.11-25.61-5Z"></path><path d="M348.34,386.59c4.43-3.19,9.28-5.61,14-8.33,2.8-1.66,5.37-3.52,8.16-5.27-5.27,7.2-13.77,11.14-22.13,13.6Z"></path></g><path d="M345.53,449.29s-17.62-36.93-30.59-44.36-74.14-3.59-86.8,13.86c-10.24,14.11-16,30.5-16,30.5Z" style="fill:#fff;opacity:0.45"></path><path d="M271.18,398.48c-49.63,6.2-75.82-35.37-72.67-59.64,3.81-29.34,45.67-41.54,41.56-74.5-2.48-19.82-17.78-23.83-19.13-34.63-2.08-16.63,13.57-45.82,23.29-47s32.06,23.24,34.14,39.87c1.35,10.8-12.5,18.45-10,38.27,4.12,32.95,47.7,34.49,58.61,62C336,345.55,320.82,392.28,271.18,398.48Z" style="fill:#fff;opacity:0.45"></path><path d="M200.8,280.86c-20.6,2.57-16.63,34.58,4,32S221.42,278.28,200.8,280.86Z" style="fill:#263238"></path><path d="M183.37,267c.58-8.19,11.5-13.41,17.94-8-3,.56-5.78.84-8.51,2-3.51,1.41-6.26,3.59-9.43,5.94Z" style="fill:#263238"></path><path d="M324,249.39c-3.65-1.49-6.86-2.93-10.6-3.44-2.94-.47-5.74-.06-8.75.13,4.95-6.87,16.73-4.49,19.35,3.31Z" style="fill:#263238"></path><path d="M310.17,267.2c-20.59,2.57-16.63,34.58,4,32S330.79,264.62,310.17,267.2Z" style="fill:#263238"></path><path d="M277.45,334.87c-.9,6.21-2.41,15.17-12.32,16.41s-13.58-7.08-16-12.87c0,0,5.14,1.82,8.22-.8s3.46-20.79,3.46-20.79,4.83,17.52,8.46,19.31S277.45,334.87,277.45,334.87Z" style="fill:#ff9bbc"></path><path d="M264.36,345.06a94.3,94.3,0,0,1-3.45-27.6,94.55,94.55,0,0,1,3.45,27.6Z" style="fill:#263238"></path><path d="M281.93,301.55c.3,2.42-1.89,5.24-2.82,6.49-1.95,2.56-6.14,3.89-7.54,2.57-1.63-1.52,2.73-2.92,2.16-4.51-.42-1.19-2-3-4.16-2.32s-.57,6.67-1.32,8.68a8.89,8.89,0,0,1-7,5.56l-.22,0a8.9,8.9,0,0,1-8.17-3.66c-1.22-1.76-1.13-8-3.41-8.09s-3.35,2-3.47,3.27c-.16,1.68,4.41,2,3.21,3.84-1,1.62-5.43,1.36-7.94-.64-1.21-1-4-3.18-4.33-5.59-.41-3.23,5.66-10.8,21.16-12.73l.22,0C273.79,292.48,281.53,298.32,281.93,301.55Z" style="fill:#263238"></path><path d="M234.52,324.15A34,34,0,0,0,238.6,329c2.86,2.9,5.89,5.76,9.65,7.34,2.52,1,5.38,2,7.75.66,1.75-1.61,2.13-5.21,2.74-7.66.78-4.09,1.36-8.28,2.08-12.49.7,5.54,1.39,18.18-2.76,22.33-3.25,2.49-7.82,1.25-11-.37-4-2-7-5.4-9.51-9a21.91,21.91,0,0,1-3-5.65Z" style="fill:#263238"></path><path d="M288.12,317.46a21.84,21.84,0,0,1-1.56,6.23c-1.54,4.06-3.65,8.13-7,11-2.66,2.35-6.79,4.68-10.54,3.06-5-3-7.49-15.42-8.18-21,1.74,3.91,3.33,7.82,5.09,11.59,1.19,2.23,2.45,5.63,4.55,6.75,2.61.68,5.15-.95,7.34-2.54,3.27-2.46,5.49-6,7.55-9.49a33,33,0,0,0,2.77-5.66Z" style="fill:#263238"></path><path d="M287,362.88c-5,2.51-10.36,4.55-15.59,5-.42,0-.57.76-.21,1,1,.71,3.75,2.7,4.18,3-.32.06-.64.12-1,.16a29.64,29.64,0,0,1-3.25.26,34.45,34.45,0,0,1-6.5-.46,31.74,31.74,0,0,1-6.29-1.73c-2.07-.79-4-1.87-6-2.87-.09,0-.17.15-.09.22a24.16,24.16,0,0,0,5.89,3.87,31.19,31.19,0,0,0,6.22,2.27,28.66,28.66,0,0,0,6.58.84,33.51,33.51,0,0,0,3.46-.16,8.51,8.51,0,0,0,3.34-.77c.7-.38.41-1.59-.15-1.82-.34-.14-4.25-2.58-4.82-2.95a31.07,31.07,0,0,0,6.71-1.52,33.64,33.64,0,0,0,7.65-3.93C287.33,363.19,287.19,362.77,287,362.88Z" style="fill:#263238"></path><path d="M162.41,449.29l13.3-44.36s-35.47-12.41-44.34-30.37c-7.06-14.3-3.86-75.78,2.21-113.8-.21,15-.87,90.07,11.76,107.92s37.58,29,70.17,36.25c0,0-14.2,14.52-14.2,26.16,0,7.85,11.23,18.2,58.11,18.2Z" style="opacity:0.1"></path><path d="M371.53,376.47s4.59,44.42,2.82,55.06-39.46,17.76-39.46,17.76h58.75Z" style="opacity:0.1"></path><path d="M205.69,173.56c-4.15,1.25-10.58-1.74-13.57-4.95s-8.43-14.53-8.43-14.53-1.66,10.42-.77,15.3a19.25,19.25,0,0,0,3.1,7.76,32,32,0,0,1-10.64-9.09c-4-5.76-6.43-9.53-12-10.53s-21.73,22.17-34.47,29.93-26,11.75-30.82,19.29-4.43,43,3.33,64.29,28.59,43,37.9,39.68,3.71-27.68,17.9-58.27c10.9-23.5,26-33.95,26-33.95Z" style="fill:#E1C2A0"></path><path d="M180.35,220.8c-4.91,4.24-15.14,14.44-23.11,31.64-14.18,30.59-8.58,54.95-17.89,58.27S109.2,292.31,101.44,271c4.55,10,25.91,29.7,32.37,24.83,5-3.76,8.66-29.71,16.52-44.34C158,237.35,179,221.76,180.35,220.8Z" style="opacity:0.1"></path><path d="M205.69,173.56c-5,1.27-11.05-1.67-14.39-5.45a57.13,57.13,0,0,1-4.33-6.74c-1.31-2.32-2.56-4.67-3.77-7.05l1-.15c-.87,7.47-2.21,16,2.46,22.46l2.11,2.92-3.16-1.65a34.9,34.9,0,0,1-8.18-5.93c-4.7-4.49-7.17-12.35-14.34-13.35-2.46.42-4.38,2.63-6.27,4.25-7,6.79-13.43,14.5-20.87,21-9.83,8.88-23.46,12.15-33.62,20.29a12.18,12.18,0,0,0-4.45,7.51,90.21,90.21,0,0,0-1.45,19.24c.29,12.93,1.76,26.09,5.79,38.4a78.07,78.07,0,0,0,8.56,17.33c4.71,7.46,18.58,25.31,28.19,23.25,1.16-.38,2.08-1.68,2.76-3.05,2-4.38,2.86-9.26,3.87-14,3.93-19,7.13-39.68,19.93-55.09-8.17,10.39-12,23.31-14.83,36-1.38,6.41-2.42,12.88-3.6,19.35-1,4.87-1.74,9.87-3.81,14.47-2.6,6.38-9.13,4.67-13.85,1.83-8.59-5.29-15.18-13.17-20.79-21.4-11.4-16.65-14.56-37.3-15.12-57.07-.07-3.31,0-6.63.16-10,.43-5.11.61-10.34,3.18-15.07,2.89-4.4,7.65-7.1,12-9.51,7.29-3.89,14.78-7,21.51-11.59a92,92,0,0,0,10.87-9.66c4.63-4.61,9-9.53,13.88-14.05,1.94-1.7,3.86-3.54,6.41-4.49a4,4,0,0,1,2.41-.1l.65.15c7,1.75,9.55,9.25,14.11,14a33,33,0,0,0,7.61,5.74l-1.05,1.27a19.79,19.79,0,0,1-2.61-5.65c-1.8-6.47-.2-13.28.7-19.75,2.5,5.27,5,10.71,8.34,15.48,3.16,3.74,8.89,6.88,13.91,5.82Z" style="fill:#263238"></path><path d="M277.28,162.21c4.32.34,10-4,12.2-7.74s5.12-16,5.12-16,3.85,9.83,4,14.78a19.27,19.27,0,0,1-1.37,8.24,32.14,32.14,0,0,0,8.45-11.15c2.67-6.48,4.24-10.69,9.44-12.85s26,17,40.08,21.87,28,5.91,34.23,12.25S403,212.69,400,235.14,381.21,283.26,371.41,282s-9.54-26.25-29.94-53.1c-15.67-20.63-32.66-27.61-32.66-27.61Z" style="fill:#E1C2A0"></path><path d="M400,235.13c-3,22.45-18.74,48.13-28.55,46.88-8.89-1.14-9.49-21.83-24.78-45.72a.31.31,0,0,1,0-.07c8.42,7.54,19.06,34.36,26.6,35.25s19.18-19.91,22.5-34c2-8.49,2.95-36.43,3-37.06C400.56,212,401.34,224.83,400,235.13Z" style="opacity:0.1"></path><path d="M277.28,162.21c5.11,0,10.07-4.33,12.35-8.66,2.26-5.38,3.51-11.22,4.83-16.9,2.26,6.12,5.28,12.44,4.9,19.14a19.15,19.15,0,0,1-1.34,6.07l-1.29-1a33.56,33.56,0,0,0,6.21-7.23c3.44-5.6,4.28-13.48,10.78-16.69a4.8,4.8,0,0,1,3-.7c2.69.38,5,1.77,7.23,3,5.76,3.37,11.05,7.25,16.56,10.76a90.37,90.37,0,0,0,12.69,7.11c7.55,3,15.53,4.48,23.48,6.73,4.82,1.41,10,3,13.81,6.72,3.52,4.06,4.81,9.13,6.33,14,.9,3.21,1.64,6.45,2.28,9.7,3.68,19.43,5,40.28-2.57,59-3.71,9.24-8.47,18.35-15.72,25.35-4,3.73-10,6.9-13.93,1.18-3-4.06-4.82-8.77-6.81-13.32-2.54-6.07-4.93-12.17-7.66-18.13-5.44-11.83-12-23.63-22.19-32,15.81,12.32,23.34,31.79,31.25,49.56,2,4.13,5.66,14.31,10.13,15.23,9.8,0,19.61-20.57,22.56-28.74a78.1,78.1,0,0,0,4.66-18.76c1.3-12.89-.07-26.06-2.56-38.75a90,90,0,0,0-5.53-18.49,12.18,12.18,0,0,0-5.95-6.38c-11.67-5.78-25.68-6.06-37.18-12.63-8.66-4.74-16.58-10.9-24.88-16-2.19-1.19-4.53-2.93-7-2.81-6.79,2.51-7.52,10.71-11.16,16.1a34.71,34.71,0,0,1-6.72,7.54l-2.73,2.3,1.43-3.32c3.18-7.32.05-15.34-2.39-22.46l1-.07c-.66,2.58-1.39,5.14-2.17,7.69a57,57,0,0,1-2.79,7.51c-2.45,4.39-7.71,8.58-12.89,8.4Z" style="fill:#263238"></path><path d="M114,444.53c-1.07,7.07,6.48,15.46,11.47,16.3s8.81-2.83,8.81-2.83,4.49,7,13,7.81a14.53,14.53,0,0,0,12.81-5s5,3.82,13.8,3.82S187,456,187,456s6,1.67,10.31-1.82,5.32-12.14,2.33-18.79S179,408,157.64,407.73,115.63,433.56,114,444.53Z" style="fill:#E1C2A0"></path><path d="M136,439.09c-1.6,6.34-2.55,12.63-1.44,19.13-3.9-5.66-2.8-14,1.44-19.13Z" style="fill:#263238"></path><path d="M183.08,435.89c5.16,4.82,7.65,13.57,3.74,19.84,1-7-1.06-13.49-3.74-19.84Z" style="fill:#263238"></path><path d="M159.65,440c1.28,6.9,1.06,13.79.53,20.78-2.23-6.65-2-14-.53-20.78Z" style="fill:#263238"></path><path d="M186.12,457.4c-1.64,2.44-5.72,7.25-12.3,7.25-8.81,0-13.8-3.82-13.8-3.82a14.52,14.52,0,0,1-12.8,5c-8.48-.83-13-7.82-13-7.82s-3.82,3.66-8.81,2.83-12.55-9.22-11.47-16.29c1-6.79,9.31-19.36,20.53-27.9-10.88,10.46-14.08,19.87-12.86,25.73s6.21,11.2,12,8.87c0,0,7.1,8.19,14.19,9.58a14.1,14.1,0,0,0,12-3.59s8.26,5.41,14.93,5.21S186.12,457.4,186.12,457.4Z" style="opacity:0.1"></path><path d="M331.81,449.29h88.78s-4.07-64.71-3.9-66.6,13.74-7.2,12.3-20.62c-1-9.31-7.36-8.49-8.56-10.72s-1.53-18.47-9.81-20.62-8.25,2.81-11.47,2.25-2.58-6.32-10.45-5.34c-9.3,1.15-11.93,10.51-14,12.4s-6.65-1.32-13.64,6.49c-6.67,7.46,2.16,22.28,1,25.52C361.36,374,331.81,449.29,331.81,449.29Z" style="fill:#E1C2A0"></path><path d="M387.82,434c-2.16-5.41-3.81-11.06-3.87-16.5,0-.43-.73-.64-1-.29-.81.95-3.11,3.63-3.44,4.05,0-.34-.07-.67-.08-1a31.75,31.75,0,0,1,0-3.38,35.41,35.41,0,0,1,1-6.65,33.48,33.48,0,0,1,2.31-6.34c1-2.06,2.28-4,3.47-6,.06-.09-.13-.19-.21-.11a25,25,0,0,0-4.49,5.73,32.31,32.31,0,0,0-2.87,6.22,29.62,29.62,0,0,0-1.43,6.71,30.28,30.28,0,0,0-.12,3.57,8.9,8.9,0,0,0,.5,3.51c.33.75,1.6.56,1.89,0,.17-.33,3-4.16,3.46-4.71a31.27,31.27,0,0,0,1,7,34.77,34.77,0,0,0,3.39,8.22C387.47,434.33,387.91,434.22,387.82,434Z" style="opacity:0.2"></path><path d="M398.34,350.4c.1-1.06.34-2.11.51-3.17a30.92,30.92,0,0,1,2.69-7.28,10.9,10.9,0,0,1,1.25-1.75,3.73,3.73,0,0,1,5.16-.74,11,11,0,0,1,3.41,3.44c2,3,3.33,6.21,3.08,9.84a11.16,11.16,0,0,1-4.94,8.85,6.57,6.57,0,0,1-9.73-2.24A11.12,11.12,0,0,1,398.34,350.4Z" style="fill:#ff9bbc"></path><path d="M379.87,353.08a11.25,11.25,0,0,1,0-11.39,16.58,16.58,0,0,1,8.85-7.52,7.86,7.86,0,0,1,2.1-.44,3.58,3.58,0,0,1,4,2.53,12.79,12.79,0,0,1,.52,5.73c-.12,1.45-.34,2.9-.52,4.35a14.43,14.43,0,0,1-3.11,7.22,8.64,8.64,0,0,1-4.26,2.83A6.48,6.48,0,0,1,379.87,353.08Z" style="fill:#ff9bbc"></path><path d="M368.77,366.87a10.38,10.38,0,0,1-4.29-9.85,12,12,0,0,1,.27-1.33,14.08,14.08,0,0,1,3.77-7.21,6.09,6.09,0,0,1,.61-.53c2.11-1.61,4.12-1.41,5.86.61a14.71,14.71,0,0,1,2.67,5.11,17,17,0,0,1,1.15,7.43,9.09,9.09,0,0,1-1.62,4.34A5.8,5.8,0,0,1,368.77,366.87Z" style="fill:#ff9bbc"></path><path d="M410,383.71c0,.39-.11.78-.18,1.29-.94,3.71-3.49,5.88-7.24,6.69a15.23,15.23,0,0,1-11.09-2,11.57,11.57,0,0,0-7.27-1.56,15.38,15.38,0,0,1-10.81-2.52,8.87,8.87,0,0,1-4.21-7.92,9.39,9.39,0,0,1,3.29-6.69,18.51,18.51,0,0,1,3.57-2.51,29,29,0,0,0,7.5-5.76,11.15,11.15,0,0,1,16.25-.25,10.85,10.85,0,0,1,2.83,5.06,15.3,15.3,0,0,0,3.65,6.76,13,13,0,0,1,3.74,8.52A7,7,0,0,1,410,383.71Z" style="fill:#ff9bbc"></path><path d="M422.63,367.65c-1,4.44-3.37,7.26-7.29,8.63a6,6,0,0,1-8.26-4.9,8.9,8.9,0,0,1,.39-4.25c1.09-3.26,3.32-5.7,5.79-7.93a13.16,13.16,0,0,1,3-2,3.73,3.73,0,0,1,5.32,1.73,11.68,11.68,0,0,1,1.31,6.08C422.83,366,422.68,367,422.63,367.65Z" style="fill:#ff9bbc"></path><path d="M403.93,330.8c-.94.5-2.94,2.67-4.66,2.59s-4.41-3.82-5.49-4.4-5.08-1.35-9.43,1.33S378,338.63,375.48,341s-3.88,1.33-6.26,2-6.38,3.55-7.26,9.43,4.76,19.28,4.54,20.61-17.23,53.26-14.07,62.74c3.51,10.55,42.95,13.36,42.95,13.36l-.28.2H331.81s29.55-75.27,30.26-77.24c1.16-3.24-7.67-18.06-1-25.52,7-7.81,11.57-4.6,13.63-6.49s4.69-11.25,14-12.4c7.87-1,7.23,4.78,10.45,5.34C401.06,333.31,401.87,331.71,403.93,330.8Z" style="opacity:0.1"></path><path d="M404.12,330.71l0,0-.17.07Z"></path></g></svg>
